<svg width="40" height="40" viewBox="0 0 40 40" fill="none" xmlns="http://www.w3.org/2000/svg">
<path d="M34.2335 31.7335C33.9835 31.9835 33.6668 32.1001 33.3501 32.1001C33.0335 32.1001 32.7168 31.9835 32.4668 31.7335L24.2168 23.4835L25.1001 22.6001L25.9835 21.7168L34.2335 29.9668C34.7168 30.4501 34.7168 31.2501 34.2335 31.7335Z" fill="#86C232"/>
<path opacity="0.4" d="M10.7829 15.4666L20.4496 25.1333C21.0996 25.7833 21.0996 26.8333 20.4496 27.4833L18.9496 29C17.5996 30.3333 15.4663 30.3333 14.1329 29L6.89961 21.7666C5.58294 20.45 5.58294 18.3 6.89961 16.9666L8.41628 15.45C9.06628 14.8167 10.1329 14.8166 10.7829 15.4666Z" fill="#86C232"/>
<path d="M30.9838 16.9832L24.6338 23.3166C23.9672 23.9832 22.9005 23.9832 22.2338 23.3166L12.6172 13.6999C11.9505 13.0332 11.9505 11.9666 12.6172 11.2999L18.9672 4.9499C20.2839 3.63324 22.4338 3.63324 23.7672 4.9499L31.0005 12.1832C32.3005 13.4999 32.3005 15.6332 30.9838 16.9832Z" fill="#86C232"/>
<path d="M13.334 36.25H3.33398C2.65065 36.25 2.08398 35.6833 2.08398 35C2.08398 34.3167 2.65065 33.75 3.33398 33.75H13.334C14.0173 33.75 14.584 34.3167 14.584 35C14.584 35.6833 14.0173 36.25 13.334 36.25Z" fill="#86C232"/>
</svg>
