<svg width="40" height="40" viewBox="0 0 40 40" fill="none" xmlns="http://www.w3.org/2000/svg">
<path opacity="0.4" d="M35.4173 15.2501C31.5673 9.20013 25.934 5.7168 20.0007 5.7168C17.034 5.7168 14.1507 6.58346 11.5173 8.20013C8.88398 9.83346 6.51732 12.2168 4.58398 15.2501C2.91732 17.8668 2.91732 22.1168 4.58398 24.7335C8.43398 30.8001 14.0673 34.2668 20.0007 34.2668C22.9673 34.2668 25.8507 33.4001 28.484 31.7835C31.1173 30.1501 33.484 27.7668 35.4173 24.7335C37.084 22.1335 37.084 17.8668 35.4173 15.2501ZM20.0007 26.7335C16.2673 26.7335 13.2673 23.7168 13.2673 20.0001C13.2673 16.2835 16.2673 13.2668 20.0007 13.2668C23.734 13.2668 26.734 16.2835 26.734 20.0001C26.734 23.7168 23.734 26.7335 20.0007 26.7335Z" fill="#86C232"/>
<path d="M20 15.2334C17.3833 15.2334 15.25 17.3667 15.25 20.0001C15.25 22.6167 17.3833 24.7501 20 24.7501C22.6167 24.7501 24.7667 22.6167 24.7667 20.0001C24.7667 17.3834 22.6167 15.2334 20 15.2334Z" fill="#86C232"/>
</svg>
