<svg width="40" height="40" viewBox="0 0 40 40" fill="none" xmlns="http://www.w3.org/2000/svg">
<path opacity="0.4" d="M16.6507 29.9668C24.0052 29.9668 29.9673 24.0048 29.9673 16.6502C29.9673 9.29557 24.0052 3.3335 16.6507 3.3335C9.29606 3.3335 3.33398 9.29557 3.33398 16.6502C3.33398 24.0048 9.29606 29.9668 16.6507 29.9668Z" fill="#86C232"/>
<path d="M36.6168 26.6501C36.6168 32.1501 32.1501 36.6168 26.6501 36.6168C23.2501 36.6168 20.2668 34.9168 18.4668 32.3335C25.7335 31.5168 31.5168 25.7335 32.3335 18.4668C34.9168 20.2668 36.6168 23.2501 36.6168 26.6501Z" fill="#86C232"/>
<path d="M19.084 16.1831L15.084 14.7831C14.684 14.6498 14.6007 14.6164 14.6007 14.0331C14.6007 13.5998 14.9007 13.2498 15.284 13.2498H17.784C18.3173 13.2498 18.7507 13.7331 18.7507 14.3331C18.7507 15.0164 19.3173 15.5831 20.0007 15.5831C20.684 15.5831 21.2507 15.0164 21.2507 14.3331C21.2507 12.4164 19.7673 10.8498 17.9173 10.7664V10.6831C17.9173 9.99977 17.3507 9.43311 16.6673 9.43311C15.984 9.43311 15.4173 9.98311 15.4173 10.6831V10.7664H15.2673C13.5173 10.7664 12.084 12.2331 12.084 14.0498C12.084 15.6331 12.784 16.6498 14.234 17.1498L18.2507 18.5498C18.6507 18.6831 18.734 18.7164 18.734 19.2998C18.734 19.7331 18.434 20.0831 18.0507 20.0831H15.5507C15.0173 20.0831 14.584 19.5998 14.584 18.9998C14.584 18.3164 14.0173 17.7498 13.334 17.7498C12.6507 17.7498 12.084 18.3164 12.084 18.9998C12.084 20.9164 13.5673 22.4831 15.4173 22.5664V22.6664C15.4173 23.3498 15.984 23.9164 16.6673 23.9164C17.3507 23.9164 17.9173 23.3498 17.9173 22.6664V22.5831H18.0673C19.8173 22.5831 21.2507 21.1164 21.2507 19.2998C21.2507 17.7164 20.534 16.6998 19.084 16.1831Z" fill="#86C232"/>
</svg>
