<svg width="32" height="32" viewBox="0 0 32 32" fill="none" xmlns="http://www.w3.org/2000/svg">
<path opacity="0.4" d="M21.586 2.66699H10.4127C5.55935 2.66699 2.66602 5.56033 2.66602 10.4137V21.5737C2.66602 26.4403 5.55935 29.3337 10.4127 29.3337H21.5727C26.426 29.3337 29.3193 26.4403 29.3193 21.587V10.4137C29.3327 5.56033 26.4394 2.66699 21.586 2.66699Z" fill="#121414"/>
<path d="M22.3628 11.0506L11.0491 22.3643C10.6625 22.7509 10.0214 22.7509 9.63484 22.3643C9.24829 21.9778 9.24829 21.3367 9.63484 20.9501L20.9485 9.63641C21.3351 9.24986 21.9762 9.24986 22.3628 9.63641C22.7493 10.023 22.7493 10.6641 22.3628 11.0506Z" fill="#E5E7EB"/>
</svg>
