<svg width="32" height="32" viewBox="0 0 32 32" fill="none" xmlns="http://www.w3.org/2000/svg">
<path opacity="0.4" d="M21.586 2.66699H10.4127C5.55935 2.66699 2.66602 5.56033 2.66602 10.4137V21.5737C2.66602 26.4403 5.55935 29.3337 10.4127 29.3337H21.5727C26.426 29.3337 29.3193 26.4403 29.3193 21.587V10.4137C29.3327 5.56033 26.4394 2.66699 21.586 2.66699Z" fill="#86C232"/>
<path d="M14.1059 20.7735C13.8393 20.7735 13.5859 20.6668 13.3993 20.4801L9.62594 16.7068C9.23927 16.3201 9.23927 15.6801 9.62594 15.2935C10.0126 14.9068 10.6526 14.9068 11.0393 15.2935L14.1059 18.3601L20.9593 11.5068C21.3459 11.1201 21.9859 11.1201 22.3726 11.5068C22.7593 11.8935 22.7593 12.5335 22.3726 12.9201L14.8126 20.4801C14.6259 20.6668 14.3726 20.7735 14.1059 20.7735Z" fill="#86C232"/>
</svg>
